<svg xmlns="http://www.w3.org/2000/svg" version="1.1" xmlns:xlink="http://www.w3.org/1999/xlink" width="512" height="512" x="0" y="0" viewBox="0 0 512 512" style="enable-background:new 0 0 512 512" xml:space="preserve" class=""><g><path d="M256 0C114.62 0 0 114.62 0 256s114.62 256 256 256 256-114.62 256-256S397.38 0 256 0zm122.69 349.56c-.08 13.5-4.61 25.1-13.11 33.53S345.43 396 331.9 396H163.46c-14.06 0-26-4.5-34.45-13s-13-20.43-13-34.54V180.6c0-14 4.52-25.95 13-34.41s20.47-12.91 34.58-12.92h55.77c6.82 0 12.42 2 16.19 5.83 3.37 3.4 5.13 8.1 5.09 13.59-.08 11.57-8.33 19.06-21 19.07h-55.71c-7.67 0-9.44 1.8-9.44 9.56v166.71c0 7.68 1.78 9.45 9.53 9.45h166.71c7.72 0 9.49-1.78 9.51-9.49V292.22c0-12.69 7.53-20.93 19.12-21h.09c11.65 0 19.2 8.16 19.23 20.8v5.26c.06 17.16.1 34.86.01 52.28zm17.22-128c-.05 11.28-7.93 19.17-19.15 19.18s-19.08-7.85-19.22-19.09c-.07-5.74-.13-14.66-.18-23.29 0-6.33-.07-12.44-.11-16.46-.44.39-.84.76-1.22 1.14l-25.22 25.36c-24.81 25-50.47 50.76-75.88 76a30.68 30.68 0 0 1-14.18 7.78 15 15 0 0 1-3.4.39c-6.49 0-12.89-4.32-15.92-10.74-3.74-7.92-2.14-16.54 4.28-23.05 8-8.1 16.2-16.25 24.14-24.13l8.42-8.36 27.19-27.05q21.85-21.74 43.71-43.5c.29-.28.56-.57.85-.88-8.85-.14-28-.29-38.73-.34-6.06 0-11.19-2-14.83-5.69a18.82 18.82 0 0 1-5.19-13.83c.12-11.33 8.14-18.94 20-19h85.08c11.87 0 19.56 7.6 19.61 19.29.04 29.28.04 58.29-.05 86.28z" data-name="Layer 2" fill="#858585" opacity="1" data-original="#000000" class=""></path></g></svg>