<?xml version="1.0" encoding="UTF-8"?>
<svg xmlns="http://www.w3.org/2000/svg" viewBox="0 0 24 24" width="512" height="512"><g id="Layer_2" data-name="Layer 2"><path d="M12,22.75A2.752,2.752,0,0,1,9.25,20V17a.75.75,0,0,1,.75-.75h4a.75.75,0,0,1,.75.75v3A2.752,2.752,0,0,1,12,22.75Zm-1.25-5V20a1.25,1.25,0,0,0,2.5,0V17.75Z"/><path d="M18,17.75H6a2.75,2.75,0,0,1,0-5.5H18a2.75,2.75,0,0,1,0,5.5Zm-12-4a1.25,1.25,0,0,0,0,2.5H18a1.25,1.25,0,0,0,0-2.5Z"/><path d="M19,14.02a.75.75,0,0,1-.75-.75V4A1.252,1.252,0,0,0,17,2.75H12.24a1.247,1.247,0,0,0-1.119.695l-.452.893a.78.78,0,0,1-1.338,0l-.451-.89a1.247,1.247,0,0,0-1.12-.7H7A1.252,1.252,0,0,0,5.75,4v9.27a.75.75,0,0,1-1.5,0V4A2.753,2.753,0,0,1,7,1.25h.76A2.734,2.734,0,0,1,10,2.406,2.732,2.732,0,0,1,12.24,1.25H17A2.753,2.753,0,0,1,19.75,4v9.27A.75.75,0,0,1,19,14.02Z"/><path d="M10,6.75A.75.75,0,0,1,9.25,6V4a.75.75,0,0,1,1.5,0V6A.75.75,0,0,1,10,6.75Z"/></g></svg>
