<svg height="512" viewBox="0 0 24 24" width="512" xmlns="http://www.w3.org/2000/svg"><g id="options"><g><path d="m3 6h3.185c.414 1.161 1.513 2 2.815 2s2.401-.839 2.815-2h9.185c.553 0 1-.447 1-1s-.447-1-1-1h-9.185c-.414-1.161-1.513-2-2.815-2s-2.401.839-2.815 2h-3.185c-.553 0-1 .447-1 1s.447 1 1 1zm6-2c.552 0 1 .448 1 1s-.448 1-1 1-1-.448-1-1 .448-1 1-1z"/><path d="m21 11h-3.185c-.414-1.161-1.513-2-2.815-2s-2.401.839-2.815 2h-9.185c-.553 0-1 .447-1 1s.447 1 1 1h9.185c.414 1.161 1.514 2 2.815 2s2.401-.839 2.815-2h3.185c.553 0 1-.447 1-1s-.447-1-1-1zm-6 2c-.552 0-1-.448-1-1s.448-1 1-1 1 .448 1 1-.448 1-1 1z"/><path d="m21 18h-9.185c-.414-1.161-1.514-2-2.815-2s-2.401.839-2.815 2h-3.185c-.553 0-1 .447-1 1s.447 1 1 1h3.185c.414 1.161 1.513 2 2.815 2s2.401-.839 2.815-2h9.185c.553 0 1-.447 1-1s-.447-1-1-1zm-12 2c-.552 0-1-.448-1-1s.448-1 1-1 1 .448 1 1-.448 1-1 1z"/></g></g></svg>