<svg id="Layer_2" enable-background="new 0 0 32 32" height="512" viewBox="0 0 32 32" width="512" xmlns="http://www.w3.org/2000/svg"><g><path d="m4 29h2.5c1.65002 0 3-1.35004 3-3v-8.90002c0-1.65997-1.34998-3-3-3h-2.5c-1.65002 0-3 1.34003-3 3v8.90002c0 1.64996 1.34998 3 3 3z"/><path d="m17.25 8.54999h-2.5c-1.65002 0-3 1.34998-3 3v14.45001c0 1.64996 1.34998 3 3 3h2.5c1.65002 0 3-1.35004 3-3v-14.45001c0-1.65003-1.34998-3-3-3z"/><path d="m28 3h-2.5c-1.65002 0-3 1.34998-3 3v20c0 1.64996 1.34998 3 3 3h2.5c1.65002 0 3-1.35004 3-3v-20c0-1.65002-1.34998-3-3-3z"/></g></svg>