<svg id="Layer_1" enable-background="new 0 0 512 512" height="512" viewBox="0 0 512 512" width="512" xmlns="http://www.w3.org/2000/svg"><path clip-rule="evenodd" d="m256 0c-141.2 0-256 114.8-256 256s114.8 256 256 256 256-114.8 256-256-114.8-256-256-256z" fill="#4bae4f" fill-rule="evenodd"/><path d="m206.7 373.1c-32.7-32.7-65.2-65.7-98-98.4-3.6-3.6-3.6-9.6 0-13.2l37.7-37.7c3.6-3.6 9.6-3.6 13.2 0l53.9 53.9 138.6-138.7c3.7-3.6 9.6-3.6 13.3 0l37.8 37.8c3.7 3.7 3.7 9.6 0 13.2l-183.3 183.1c-3.6 3.7-9.5 3.7-13.2 0z" fill="#fff"/></svg>