<svg fill="none" height="512" viewBox="0 0 24 24" width="512" xmlns="http://www.w3.org/2000/svg"><path clip-rule="evenodd" d="m1 9c0 .55228.44772 1 1 1h3.32297l1.74855-4.37139c.15187-.37966.51958-.62861.92848-.62861s.77661.24895.92848.62861l1.88582 4.71459c.0671.1676.3043.1676.3714 0l1.0858-2.71459c.1519-.37966.5196-.62861.9285-.62861s.7766.24895.9285.62861l.8982 2.24567c.0304.07593.104.12572.1857.12572h.7876c.5523 0 1 .4477 1 1s-.4477 1-1 1h-1.6c-.4089 0-.7766-.249-.9285-.6286l-.0858-.2146c-.0671-.1676-.3043-.1676-.3714 0l-1.0858 2.7146c-.1519.3796-.5196.6286-.9285.6286s-.7766-.249-.9285-.6286l-1.8858-4.71458c-.06706-.16763-.30434-.16763-.3714 0l-.88582 2.21458c-.15187.3796-.51958.6286-.92848.6286h-4c-.55228 0-1 .4477-1 1v4c0 1.1046.89543 2 2 2h18c1.1046 0 2-.8954 2-2v-14c0-1.10457-.8954-2-2-2h-18c-1.10457 0-2 .89543-2 2zm1 12c-.55228 0-1 .4477-1 1s.44772 1 1 1h20c.5523 0 1-.4477 1-1s-.4477-1-1-1z" fill="rgb(0,0,0)" fill-rule="evenodd"/></svg>