<svg fill="none" height="512" viewBox="0 0 24 24" width="512" xmlns="http://www.w3.org/2000/svg"><path clip-rule="evenodd" d="m4 3c-.55228 0-1 .44772-1 1v3c0 .55228-.44772 1-1 1s-1-.44772-1-1v-3c0-1.65685 1.34315-3 3-3h16c1.6569 0 3 1.34315 3 3v12c0 1.6569-1.3431 3-3 3h-16c-1.65685 0-3-1.3431-3-3v-1c0-.5523.44772-1 1-1s1 .4477 1 1v1c0 .5523.44772 1 1 1h16c.5523 0 1-.4477 1-1v-12c0-.55228-.4477-1-1-1zm4 2c.4089 0 .77661.24895.92848.62861l2.07152 5.17879 1.2715-3.17879c.1519-.37966.5196-.62861.9285-.62861s.7766.24895.9285.62861l.9485 2.37139h.923c.5523 0 1 .4477 1 1s-.4477 1-1 1h-1.6c-.4089 0-.7766-.249-.9285-.6286l-.2715-.6788-1.2715 3.1788c-.1519.3796-.5196.6286-.9285.6286s-.7766-.249-.9285-.6286l-2.0715-5.17882-1.07152 2.67882c-.15187.3796-.51958.6286-.92848.6286h-4c-.55228 0-1-.4477-1-1s.44772-1 1-1h3.32297l1.74855-4.37139c.15187-.37966.51958-.62861.92848-.62861zm-6 16c-.55228 0-1 .4477-1 1s.44772 1 1 1h20c.5523 0 1-.4477 1-1s-.4477-1-1-1z" fill="rgb(0,0,0)" fill-rule="evenodd"/></svg>