<svg fill="none" height="512" viewBox="0 0 15 15" width="512" xmlns="http://www.w3.org/2000/svg"><path clip-rule="evenodd" d="m12 7.5c0 .27614-.2239.5-.5.5h-6.79289l2.64644 2.6464c.19527.1953.19527.5119 0 .7072-.19526.1952-.51184.1952-.7071 0l-3.5-3.50005c-.09751-.09751-.14633-.22526-.14645-.35306v4.99951c0 .2761-.22386.5-.5.5s-.5-.2239-.5-.5v-10c0-.27614.22386-.5.5-.5s.5.22386.5.5v4.99951c.00012-.1278.04894-.25556.14645-.35307l3.5-3.49999c.19526-.19527.51184-.19527.7071 0 .19527.19526.19527.51184 0 .7071l-2.64644 2.64645h6.79289c.2761 0 .5.22386.5.5z" fill="rgb(0,0,0)" fill-rule="evenodd"/></svg>